<svg height="512pt" viewBox="0 0 512 512" width="512pt" xmlns="http://www.w3.org/2000/svg"><path d="m96 304h16v96h-16zm0 0"/><path d="m64 320h16v48h-16zm0 0"/><path d="m104 16h408v-16h-408c-57.410156.0664062-103.9335938 46.589844-104 104v328c.046875 44.164062 35.835938 79.953125 80 80h392v-80h-56v-24h96v-16h-215.054688l8-16h207.054688v-16h-208l-6-8 6-8h208v-16h-207.054688l-8-16h215.054688v-16h-96v-24h56v-80h-40v-112h80v-16h-96v128h-48v-128h-176v128h-48v-128h-24c-46.632812.078125-86.476562 33.636719-94.488281 79.574219-13.835938-27.253907-12.503907-59.738281 3.511719-85.769531 16.015624-26.03125 44.414062-41.867188 74.976562-41.804688zm-88 223.792969c15.046875 20.242187 38.777344 32.183593 64 32.207031h80v160h-56c-48.578125-.058594-87.941406-39.421875-88-88zm384 168.207031v24h-160v-50.328125l41.679688 26.328125zm-177.015625-56 25.015625-15.800781v31.601562zm67.648437 16.800781-9.832031 19.710938-16.800781-10.609375v-51.804688l16.800781-10.609375 9.832031 19.710938-12.632812 16.800781zm109.367188-72.800781h-118.320312l-41.679688 26.328125v-50.328125h160zm-192-216h144v112h-144zm-168 80c.046875-44.164062 35.835938-79.953125 80-80h8v112h-24c-24.257812-.011719-47.429688-10.074219-64-27.792969zm64 48h352v48h-232v76.433594l-30.984375 19.566406 30.984375 19.566406v76.433594h232v48h-376c-35.328125-.039062-63.960938-28.671875-64-64v-32.800781c18.976562 30.332031 52.222656 48.769531 88 48.800781h72v-192h-96c-35.328125-.039062-63.960938-28.671875-64-64v-32.800781c18.976562 30.332031 52.222656 48.769531 88 48.800781zm0 0"/></svg>