<?xml version="1.0" encoding="iso-8859-1"?>
<!-- Generator: Adobe Illustrator 19.0.0, SVG Export Plug-In . SVG Version: 6.00 Build 0)  -->
<svg version="1.1" id="Layer_1" xmlns="http://www.w3.org/2000/svg" xmlns:xlink="http://www.w3.org/1999/xlink" x="0px" y="0px"
	 viewBox="0 0 503.607 503.607" style="enable-background:new 0 0 503.607 503.607;" xml:space="preserve">
<g transform="translate(1 1)">
	<g>
		<g>
			<path d="M469.033,116.401H266.165l59.34-95.685c2.518-4.197,1.679-9.233-2.518-11.751c-4.197-2.518-9.233-1.679-11.751,2.518
				l-60.552,97.64l-68.707-98.48c-2.518-3.357-7.554-4.197-11.751-1.679c-3.357,2.518-4.197,7.554-1.679,11.751l66.757,95.685
				H32.574C14.108,116.401-1,131.509-1,149.975v285.377c0,18.466,15.108,33.574,33.574,33.574h8.393v16.787
				c0,5.036,3.357,8.393,8.393,8.393s8.393-3.357,8.393-8.393v-16.787h386.098v16.787c0,5.036,3.357,8.393,8.393,8.393
				c5.036,0,8.393-3.357,8.393-8.393v-16.787h8.393c18.466,0,33.574-15.108,33.574-33.574V149.975
				C502.607,131.509,487.498,116.401,469.033,116.401z M485.82,435.352c0,9.233-7.554,16.787-16.787,16.787H32.574
				c-9.233,0-16.787-7.554-16.787-16.787V149.975c0-9.233,7.554-16.787,16.787-16.787h436.459c9.233,0,16.787,7.554,16.787,16.787
				V435.352z"/>
			<path d="M317.951,149.975H82.934c-27.698,0-50.361,22.662-50.361,50.361v184.656c0,27.698,22.662,50.361,50.361,50.361h235.016
				c27.698,0,50.361-22.662,50.361-50.361V200.335C368.311,172.637,345.649,149.975,317.951,149.975z M351.525,384.991
				c0,18.466-15.108,33.574-33.574,33.574H82.934c-18.466,0-33.574-15.108-33.574-33.574V200.335
				c0-18.466,15.108-33.574,33.574-33.574h235.016c18.466,0,33.574,15.108,33.574,33.574V384.991z"/>
			<path d="M460.639,191.942h-67.148c-5.036,0-8.393,3.357-8.393,8.393s3.357,8.393,8.393,8.393h67.148
				c5.036,0,8.393-3.357,8.393-8.393S465.675,191.942,460.639,191.942z"/>
			<path d="M460.639,225.516h-67.148c-5.036,0-8.393,3.357-8.393,8.393s3.357,8.393,8.393,8.393h67.148
				c5.036,0,8.393-3.357,8.393-8.393S465.675,225.516,460.639,225.516z"/>
			<path d="M460.639,259.089h-67.148c-5.036,0-8.393,3.357-8.393,8.393s3.357,8.393,8.393,8.393h67.148
				c5.036,0,8.393-3.357,8.393-8.393S465.675,259.089,460.639,259.089z"/>
			<path d="M460.639,292.663h-67.148c-5.036,0-8.393,3.357-8.393,8.393v67.148c0,5.036,3.357,8.393,8.393,8.393h67.148
				c5.036,0,8.393-3.357,8.393-8.393v-67.148C469.033,296.021,465.675,292.663,460.639,292.663z M452.246,359.811h-50.361V309.45
				h50.361V359.811z"/>
			<path d="M102.239,186.066L68.666,219.64c-3.357,3.357-3.357,8.393,0,11.751c1.679,1.679,3.357,2.518,5.875,2.518
				c2.518,0,4.197-0.839,5.875-2.518l33.574-33.574c3.357-3.357,3.357-8.393,0-11.751
				C110.633,182.709,105.597,182.709,102.239,186.066z"/>
			<path d="M77.059,253.214l-8.393,8.393c-3.357,3.357-3.357,8.393,0,11.751c1.679,1.679,3.357,2.518,5.875,2.518
				c2.518,0,4.197-0.839,5.875-2.518l8.393-8.393c3.357-3.357,3.357-8.393,0-11.751C85.452,249.857,80.416,249.857,77.059,253.214z"
				/>
			<path d="M152.6,177.673l-25.18,25.18c-3.357,3.357-3.357,8.393,0,11.751c1.679,1.679,3.357,2.518,5.875,2.518
				c2.518,0,4.197-0.839,5.875-2.518l25.18-25.18c3.357-3.357,3.357-8.393,0-11.751S155.957,174.316,152.6,177.673z"/>
			<path d="M108.115,225.516c-5.036,0-8.393,3.357-8.393,8.393s3.357,8.393,8.393,8.393s8.393-3.357,8.393-8.393
				S113.151,225.516,108.115,225.516z"/>
		</g>
	</g>
</g>
<g>
</g>
<g>
</g>
<g>
</g>
<g>
</g>
<g>
</g>
<g>
</g>
<g>
</g>
<g>
</g>
<g>
</g>
<g>
</g>
<g>
</g>
<g>
</g>
<g>
</g>
<g>
</g>
<g>
</g>
</svg>
